<?xml version="1.0" standalone="no"?>
<!DOCTYPE svg PUBLIC "-//W3C//DTD SVG 20010904//EN"
 "http://www.w3.org/TR/2001/REC-SVG-20010904/DTD/svg10.dtd">
<svg version="1.0" xmlns="http://www.w3.org/2000/svg"
 width="352.000000pt" height="352.000000pt" viewBox="0 0 352.000000 352.000000"
 preserveAspectRatio="xMidYMid meet">
<metadata>
Created by potrace 1.11, written by Peter Selinger 2001-2013
</metadata>
<g transform="translate(0.000000,352.000000) scale(0.100000,-0.100000)"
fill="#000000" stroke="none">
<path d="M1845 3379 c-60 -4 -123 -11 -140 -14 -58 -10 -216 -15 -211 -6 10
15 -30 19 -55 5 -13 -7 -58 -14 -99 -15 -78 -1 -196 -15 -148 -18 33 -1 43
-15 24 -30 -11 -10 -21 -9 -45 3 -58 31 -233 17 -326 -25 -28 -13 -24 -14 64
-19 79 -5 96 -9 110 -26 17 -21 17 -21 55 -2 21 11 40 17 44 14 3 -3 0 -6 -6
-6 -6 0 -27 -14 -46 -31 -22 -18 -40 -28 -48 -23 -7 4 -9 3 -5 -1 4 -5 -35
-52 -87 -104 -85 -87 -206 -246 -206 -272 0 -6 -6 -7 -12 -3 -7 4 -10 4 -6 -1
4 -4 -1 -22 -11 -39 -30 -48 -106 -233 -131 -316 -12 -41 -26 -84 -30 -95 -5
-11 -11 -31 -13 -45 -2 -14 -11 -59 -20 -100 -65 -323 -71 -590 -20 -870 8
-47 17 -96 19 -110 2 -14 15 -70 30 -125 14 -55 26 -107 27 -115 1 -8 4 -17 7
-20 3 -3 19 -39 34 -80 42 -108 99 -220 164 -319 31 -47 59 -90 61 -96 2 -5
12 -18 22 -28 9 -10 35 -40 56 -67 77 -95 261 -222 318 -218 17 1 40 -4 52
-10 22 -12 83 -17 83 -6 0 3 -8 13 -18 22 -9 10 -13 14 -8 10 18 -14 53 -8 70
11 21 23 95 41 168 41 l51 0 -50 40 c-28 22 -58 52 -68 66 -17 26 -19 27 -96
21 -58 -4 -88 -11 -116 -28 -21 -13 -42 -23 -46 -21 -5 1 -6 -2 -2 -8 4 -6 1
-17 -5 -25 -10 -12 -10 -19 1 -32 7 -10 -3 -3 -23 16 -36 33 -36 34 -20 56 42
57 132 92 204 80 21 -4 38 -3 38 2 0 4 -16 30 -35 57 -19 27 -32 53 -28 59 3
6 1 7 -5 3 -6 -3 -13 2 -17 13 -8 25 -94 38 -151 22 -44 -12 -108 -66 -119
-100 -7 -22 0 -34 66 -126 12 -16 -6 -2 -40 32 -38 38 -60 67 -55 74 4 7 3 9
-4 5 -11 -7 -71 68 -108 134 -10 19 -21 37 -24 40 -9 9 -109 224 -125 269 -8
24 -12 48 -8 54 3 5 1 7 -4 4 -6 -4 -15 9 -21 31 -39 145 -61 237 -71 297 -7
39 -16 95 -21 125 -9 54 -23 247 -23 325 -4 384 100 796 275 1096 38 65 39 66
153 123 64 31 120 54 125 51 6 -3 10 -2 10 3 0 13 130 42 190 42 46 0 55 4 78
31 15 18 40 46 57 63 l29 31 -32 3 c-75 7 -254 -41 -416 -112 l-38 -17 20 26
c12 15 43 45 69 68 l48 41 -39 -42 c-22 -23 -38 -44 -35 -47 3 -2 52 14 109
37 105 40 255 78 318 78 19 0 46 9 62 20 15 11 31 16 35 12 5 -4 5 -2 1 5 -4
8 9 22 34 39 22 15 38 29 35 32 -14 15 -342 -51 -438 -87 -35 -14 -48 -14 -25
0 10 5 21 9 24 9 4 -1 10 3 13 8 18 27 310 90 436 93 37 1 82 11 117 25 32 13
74 24 95 23 l38 0 -52 -19 c-220 -78 -423 -282 -580 -580 -86 -164 -172 -442
-210 -681 -28 -176 -25 -590 5 -757 12 -68 21 -126 20 -130 -1 -4 1 -14 5 -22
3 -8 18 -58 32 -110 77 -274 197 -518 343 -694 23 -27 38 -54 35 -59 -3 -6 -1
-7 6 -3 6 4 14 0 17 -8 3 -9 12 -16 18 -16 7 0 25 -14 42 -31 79 -84 236 -170
357 -196 85 -18 230 -13 322 12 67 18 181 68 207 92 9 8 21 12 27 8 7 -3 8 0
5 9 -3 9 -10 16 -14 16 -14 0 -38 62 -65 165 -14 55 -28 105 -30 112 -2 7 -24
1 -62 -19 -109 -57 -207 -74 -234 -41 -25 30 -19 345 10 553 6 41 13 95 17
120 6 44 50 140 65 140 4 0 10 7 13 16 3 8 2 13 -3 10 -4 -3 -16 29 -25 72
-24 116 2 176 92 212 39 15 83 5 176 -42 32 -16 60 -28 62 -25 2 2 -11 20 -30
40 -56 61 -71 102 -71 192 0 68 4 89 29 140 53 107 97 176 108 169 7 -4 8 -2
4 4 -4 6 -2 22 5 34 24 46 157 204 187 221 27 16 32 16 46 2 19 -19 43 -97 57
-184 5 -36 12 -67 13 -70 4 -6 15 -191 20 -321 3 -65 -18 -336 -28 -368 -7
-20 3 -27 110 -77 65 -31 121 -52 125 -48 11 11 37 169 49 298 30 321 -10 693
-104 977 -24 73 -45 140 -47 148 -2 8 -6 17 -9 20 -3 3 -25 46 -48 95 -24 50
-57 111 -74 137 -16 27 -26 53 -22 59 4 7 3 9 -3 6 -5 -3 -30 22 -56 56 -25
34 -81 98 -126 141 -44 44 -77 84 -74 89 3 6 1 7 -5 3 -9 -5 -95 47 -139 84
-7 6 -13 9 -13 6 0 -2 -37 9 -82 27 -81 30 -87 31 -268 33 -102 1 -234 -2
-295 -7z m-475 -59 c-8 -5 -19 -10 -25 -10 -5 0 -3 5 5 10 8 5 20 10 25 10 6
0 3 -5 -5 -10z m-45 -20 c-3 -5 -12 -10 -18 -10 -7 0 -6 4 3 10 19 12 23 12
15 0z m-35 -14 c0 -2 -21 -17 -47 -32 -65 -37 -167 -120 -228 -184 -83 -87
-94 -100 -89 -100 3 0 -1 -6 -8 -14 -15 -16 -140 -213 -143 -226 -1 -6 -25
-60 -53 -120 -95 -206 -177 -622 -176 -900 1 -327 89 -728 216 -983 52 -103
142 -251 182 -297 l21 -25 -23 19 c-41 35 -149 208 -202 325 -110 242 -153
414 -200 805 -17 141 -11 309 21 541 24 176 107 453 172 580 12 22 22 45 23
50 6 35 178 295 195 295 5 0 9 5 9 11 0 19 102 120 165 162 50 35 154 96 163
97 1 0 2 -2 2 -4z m1001 -300 c97 -30 207 -102 297 -194 57 -59 62 -69 62
-108 0 -55 -48 -160 -121 -268 -30 -43 -59 -87 -64 -96 -25 -42 -102 -129
-123 -139 -74 -35 -114 14 -179 219 -30 94 -38 122 -67 250 -38 161 -49 308
-26 335 16 20 158 20 221 1z m-356 -83 c4 -10 15 -49 25 -88 10 -38 30 -113
44 -165 113 -431 116 -443 96 -481 -13 -24 -56 -25 -69 -1 -5 10 -30 99 -56
198 -25 98 -62 240 -81 314 -36 138 -39 194 -13 224 19 21 45 20 54 -1z m-164
-203 c31 -62 97 -254 129 -375 12 -44 28 -104 36 -133 17 -64 18 -147 2 -193
-22 -67 -62 -101 -136 -116 -48 -9 -42 -8 -77 -23 -16 -7 -83 -15 -147 -18
-115 -4 -117 -4 -142 21 -35 35 -34 61 16 312 32 162 127 413 151 398 6 -3 7
-1 3 5 -4 6 2 24 12 39 10 16 36 54 56 86 24 38 43 57 53 55 9 -2 28 -28 44
-58z m1001 -177 c35 -31 24 -87 -34 -172 -131 -193 -248 -358 -263 -371 -15
-13 -20 -11 -42 15 -32 36 -27 74 16 136 18 24 55 78 83 119 28 41 55 77 60
78 4 2 8 8 8 12 0 12 119 183 134 192 15 11 17 10 38 -9z m-638 -479 c13 -35
7 -56 -16 -52 -26 3 -35 32 -18 53 16 19 26 19 34 -1z m84 -130 c12 -8 20 -20
16 -25 -3 -5 0 -8 6 -7 27 6 55 -74 58 -167 3 -79 1 -97 -21 -147 -26 -58 -62
-88 -108 -88 -37 0 -96 71 -109 133 -27 119 7 257 74 298 38 23 55 24 84 3z
m150 0 c13 -24 3 -54 -19 -54 -14 0 -19 7 -19 28 0 43 21 57 38 26z m-470
-169 c16 -34 15 -96 -1 -117 -9 -10 -39 -20 -88 -27 -40 -6 -135 -19 -209 -31
-74 -11 -143 -20 -153 -20 -41 0 -59 119 -23 149 7 6 73 20 147 30 74 11 161
24 194 29 105 16 120 15 133 -13z m97 -46 c0 -24 -5 -34 -15 -34 -16 0 -25 37
-16 62 10 26 31 8 31 -28z m-98 -228 c48 -25 58 -64 56 -221 -1 -80 -7 -181
-13 -225 -34 -245 -41 -287 -66 -373 -9 -28 -24 -62 -34 -75 l-18 -22 -52 55
c-157 169 -295 460 -325 687 -9 69 11 98 90 133 118 52 303 73 362 41z m259
-136 c-5 -18 -12 -25 -24 -23 -21 4 -28 44 -11 64 19 23 44 -6 35 -41z m-22
-137 c10 -23 7 -63 -21 -241 -30 -195 -39 -250 -63 -407 -12 -79 -26 -110 -49
-110 -27 0 -41 29 -41 84 0 40 35 279 85 580 8 49 15 93 15 97 0 16 31 38 46
32 9 -3 22 -19 28 -35z m-1144 -823 c13 -14 21 -25 18 -25 -2 0 -15 11 -28 25
-13 14 -21 25 -18 25 2 0 15 -11 28 -25z"/>
<path d="M2138 1856 c-15 -8 -29 -12 -31 -9 -3 2 -8 -1 -13 -8 -4 -8 -3 -10 4
-5 16 9 15 5 -4 -34 -12 -23 -16 -54 -15 -104 3 -95 5 -115 11 -113 3 1 17
-11 32 -26 48 -48 100 -29 133 48 20 49 22 172 2 186 -4 3 -9 15 -10 27 0 11
-5 18 -9 16 -4 -3 -8 -1 -8 4 0 8 -43 32 -58 32 -4 0 -19 -6 -34 -14z"/>
<path d="M1058 3333 c17 -2 47 -2 65 0 17 2 3 4 -33 4 -36 0 -50 -2 -32 -4z"/>
<path d="M805 3242 c-39 -4 -85 -22 -85 -33 0 -5 -5 -9 -11 -9 -14 0 -69 -39
-69 -49 0 -4 25 -7 55 -8 74 -2 117 -17 149 -54 31 -34 27 -35 100 37 l45 45
-27 29 c-28 30 -95 48 -157 42z"/>
<path d="M520 3044 l-65 -69 72 -6 c85 -8 128 -30 162 -82 13 -20 27 -35 30
-33 4 3 28 36 55 76 46 67 48 72 35 97 -25 47 -84 77 -158 81 l-66 4 -65 -68z"/>
<path d="M1220 2941 c-67 -18 -155 -59 -250 -117 -48 -28 -59 -41 -80 -91 -13
-32 -31 -70 -41 -84 -30 -43 -10 -41 55 5 116 82 250 135 343 136 35 0 39 5
106 123 l28 47 -48 -1 c-26 0 -77 -8 -113 -18z"/>
<path d="M390 2878 c-19 -29 -42 -67 -52 -85 l-17 -32 57 -7 c31 -3 68 -12 82
-19 37 -19 81 -66 73 -78 -3 -6 -1 -7 5 -3 7 4 18 -6 27 -25 20 -37 24 -34 60
54 15 37 34 72 41 78 12 9 9 20 -12 59 -40 74 -104 110 -195 110 -33 0 -39 -5
-69 -52z"/>
<path d="M1190 2728 c-83 -10 -162 -43 -258 -108 -117 -78 -126 -89 -148 -159
-10 -34 -21 -61 -26 -61 -4 0 -5 -7 -2 -15 3 -8 2 -20 -2 -27 -12 -19 -14 -38
-4 -38 5 0 12 5 15 10 4 6 11 8 16 4 5 -3 8 0 7 7 -4 16 141 121 155 112 5 -3
7 -2 4 4 -9 15 112 53 170 53 45 0 52 3 58 23 15 51 28 76 38 70 5 -3 7 -1 4
5 -4 5 2 32 13 58 29 66 25 71 -40 62z"/>
<path d="M247 2622 c-20 -43 -41 -90 -46 -104 l-10 -25 70 -5 c85 -7 132 -34
186 -112 40 -58 53 -67 53 -38 0 9 13 55 29 102 l28 85 -18 37 c-27 54 -79
109 -116 124 -18 8 -57 14 -86 14 l-54 0 -36 -78z"/>
<path d="M1072 2439 c-101 -12 -197 -65 -319 -176 -40 -35 -44 -43 -54 -113
-5 -41 -14 -87 -19 -102 -4 -14 -6 -29 -3 -32 3 -3 38 25 78 62 95 89 177 133
261 140 60 4 65 7 69 31 3 14 17 63 32 109 14 45 24 84 22 85 -2 2 -32 0 -67
-4z"/>
<path d="M165 2398 c-2 -7 -13 -40 -25 -73 -12 -33 -24 -76 -26 -95 l-4 -35
52 -1 c29 0 70 -9 92 -19 42 -20 109 -83 147 -139 13 -20 27 -36 30 -36 3 0
14 47 23 105 l17 104 -25 37 c-14 21 -22 42 -19 48 3 6 3 8 -1 4 -4 -3 -24 12
-44 34 -20 23 -55 49 -77 59 -46 22 -134 25 -140 7z"/>
<path d="M81 2055 c-6 -42 -11 -99 -11 -128 l0 -52 49 -2 c87 -3 175 -65 273
-193 l26 -35 4 124 3 124 -33 49 c-18 27 -54 70 -79 96 -26 26 -46 51 -45 55
2 5 -2 6 -8 2 -6 -4 -16 -2 -23 3 -14 11 -97 32 -125 32 -17 0 -21 -11 -31
-75z"/>
<path d="M969 2116 c-70 -19 -136 -62 -216 -142 l-73 -73 0 -133 c1 -103 3
-129 12 -113 6 11 35 50 66 87 42 52 69 75 118 99 35 17 70 29 78 26 9 -4 18
-2 21 3 4 6 21 10 40 10 l33 0 12 88 c6 48 15 101 20 119 4 17 5 34 2 37 -9 9
-63 6 -113 -8z"/>
<path d="M70 1668 l0 -123 63 -12 c78 -15 144 -51 211 -115 75 -72 97 -90 103
-85 11 11 -26 219 -42 237 -9 10 -14 24 -9 31 4 7 3 10 -2 6 -6 -3 -42 27 -81
67 -84 84 -130 111 -195 115 l-48 3 0 -124z"/>
<path d="M929 1766 c-19 -6 -47 -19 -62 -29 -15 -9 -27 -16 -27 -13 0 8 -73
-69 -105 -111 -18 -23 -36 -39 -40 -35 -5 4 -5 2 -1 -5 3 -6 1 -15 -5 -19 -12
-7 -6 -118 9 -209 l7 -40 32 46 c76 110 184 179 280 179 l33 0 0 125 0 125
-42 -1 c-24 -1 -59 -6 -79 -13z"/>
<path d="M86 1451 c-4 -6 17 -156 29 -210 6 -26 10 -29 60 -33 56 -5 163 -51
202 -87 12 -12 26 -21 30 -21 5 0 30 -20 56 -44 26 -24 50 -40 52 -35 3 4 -4
36 -14 71 -11 35 -23 80 -26 100 -4 29 -22 51 -88 115 -46 43 -106 90 -133
105 -48 26 -161 52 -168 39z"/>
<path d="M906 1420 c-63 -32 -103 -67 -152 -136 l-46 -65 20 -62 c12 -34 23
-73 26 -87 2 -14 8 -36 13 -49 9 -24 11 -22 47 32 21 32 43 54 49 50 5 -3 7
-1 4 4 -9 14 29 47 43 38 6 -3 9 -1 8 5 -4 18 59 38 120 39 35 1 52 5 52 14 0
6 -7 57 -15 112 -8 55 -15 106 -15 113 0 20 -108 15 -154 -8z"/>
<path d="M2363 1414 c-3 -8 13 -87 36 -175 23 -88 39 -164 36 -168 -3 -5 -1
-11 4 -13 6 -2 59 -191 97 -348 1 -8 19 -76 39 -150 20 -74 37 -142 39 -150
13 -61 31 -111 43 -122 13 -10 19 -7 39 17 14 17 29 29 34 28 5 -2 7 3 5 10
-3 6 13 32 35 56 22 24 40 46 40 50 0 3 20 32 44 64 35 45 46 54 55 44 6 -8 7
-17 3 -21 -4 -4 -2 -6 4 -4 6 2 51 -44 99 -102 48 -58 93 -108 99 -112 6 -4 8
-8 4 -8 -4 0 3 -10 15 -23 12 -13 30 -33 39 -45 23 -29 77 -29 108 -2 13 12
30 18 37 15 8 -2 11 -1 8 5 -3 5 7 17 22 27 83 53 84 77 6 170 -32 37 -60 70
-63 73 -3 3 -34 39 -68 80 -35 41 -72 85 -84 98 l-20 22 53 23 c30 13 107 46
171 73 144 61 156 80 71 118 -24 11 -43 22 -43 26 0 4 -6 7 -12 7 -11 0 -300
134 -381 176 -15 8 -23 18 -19 22 4 5 2 5 -5 1 -6 -3 -63 18 -125 48 -62 29
-162 77 -223 106 -60 28 -112 55 -115 58 -3 4 -14 9 -25 10 -11 2 -32 10 -47
18 -35 18 -47 18 -55 -2z"/>
<path d="M175 1029 c33 -96 49 -124 66 -113 28 17 244 -67 294 -114 11 -10 25
-20 30 -22 29 -10 64 -38 57 -45 -4 -5 -1 -5 6 -1 9 6 8 14 -8 36 -11 15 -20
32 -20 37 0 5 -10 34 -23 65 -19 50 -32 65 -107 122 -47 35 -93 72 -102 80
-10 9 -18 14 -18 11 0 -3 -19 4 -42 16 -24 12 -70 24 -105 27 l-63 5 35 -104z"/>
<path d="M992 1100 c-18 -4 -51 -20 -75 -36 -23 -16 -46 -27 -50 -26 -5 1 -6
-2 -3 -7 3 -5 -10 -33 -29 -62 -19 -30 -35 -57 -35 -62 0 -17 41 -129 58 -157
l18 -30 32 46 c20 27 37 42 44 38 6 -4 8 -3 4 4 -8 13 33 44 47 35 6 -3 7 -1
3 5 -8 14 23 24 98 31 56 6 59 8 60 33 1 14 -2 24 -6 22 -4 -3 -8 7 -8 21 0
14 -9 55 -21 90 l-21 65 -41 -1 c-23 -1 -57 -5 -75 -9z"/>
<path d="M230 855 c0 -9 30 -66 67 -126 33 -55 36 -57 88 -63 66 -7 174 -46
279 -98 43 -22 80 -37 83 -35 2 3 -14 33 -37 68 -33 51 -59 76 -128 122 -48
33 -114 72 -147 87 -77 35 -205 63 -205 45z"/>
<path d="M1062 819 c-13 -5 -29 -6 -35 -2 -7 3 -9 3 -5 -1 4 -4 -9 -22 -28
-38 -19 -17 -46 -50 -60 -74 l-25 -43 52 -82 52 -81 21 28 c59 84 134 121 216
108 22 -4 40 -4 40 -1 0 2 -16 37 -36 77 -19 40 -39 83 -44 96 -9 22 -15 24
-67 23 -32 0 -69 -4 -81 -10z"/>
<path d="M370 600 c0 -5 23 -41 51 -80 48 -65 54 -70 89 -70 55 0 179 -34 301
-83 59 -24 105 -39 101 -33 -37 62 -101 122 -158 150 -35 18 -61 36 -57 41 5
4 3 5 -3 2 -7 -4 -42 7 -80 24 -96 44 -244 74 -244 49z"/>
<path d="M511 394 c7 -9 38 -35 69 -58 48 -37 64 -44 120 -49 61 -6 163 -30
323 -76 37 -11 67 -17 67 -13 -1 20 -139 91 -268 138 -138 51 -230 74 -296 74
-25 0 -27 -2 -15 -16z"/>
<path d="M705 239 c3 -8 34 -26 68 -42 57 -25 75 -28 217 -32 l155 -5 -150 40
c-169 45 -299 62 -290 39z"/>
<path d="M1473 169 c-53 -26 -55 -39 -5 -39 20 0 98 -3 172 -6 148 -7 148 -8
58 49 -41 26 -170 23 -225 -4z"/>
</g>
</svg>
